{"title":"20-20 - 16-9-2016 - In-Laws &amp; Outlaws","uid":15959655,"size":981545123,"categoryP":"video","categoryS":"tv_shows","magnet":"?xt=urn:btih:6749d26f948a35d27ff5b16e569fa42c6cf65e76&amp;dn=20-20+-+16-9-2016+-+In-Laws+%26amp%3B+Outlaws&amp;tr=udp%3A%2F%2Ftracker.leechers-paradise.org%3A6969&amp;tr=udp%3A%2F%2Fzer0day.ch%3A1337&amp;tr=udp%3A%2F%2Fopen.demonii.com%3A1337&amp;tr=udp%3A%2F%2Ftracker.coppersurfer.tk%3A6969&amp;tr=udp%3A%2F%2Fexodus.desync.com%3A6969","seeders":3,"leechers":2,"uploader":"Bullrout","files":1,"time":1475649173,"description":"20-20 - 16-9-2016 - In-Laws &amp; Outlaws\r\n\r\nPolice Interview Murdered FSU Professor's Ex-Wife; Man Claims Ex Said Her Brother Discussed Killing Her Ex-Husband; Prosecutor Says Not Enough Evidence to Charge Family in Murder.\r\n\r\nComplete name                            : 20-20 - 16-9-2016 - In-Laws &amp; Outlaws.mkv\r\nFormat                                   : Matroska\r\nFormat version                           : Version 4 / Version 2\r\nFile size                                : 936 MiB\r\nDuration                                 : 39 min 51 s\r\nOverall bit rate mode                    : Variable\r\nOverall bit rate                         : 3 283 kb/s\r\nEncoded date                             : UTC 2016-10-04 14:19:23\r\nWriting application                      : mkvmerge v9.4.2 ('So High') 64bit\r\nWriting library                          : libebml v1.3.4 + libmatroska v1.4.5\r\n\r\nVideo\r\nID                                       : 2\r\nFormat                                   : AVC\r\nFormat/Info                              : Advanced Video Codec\r\nFormat profile                           :   \r\nFormat settings, CABAC                   : Yes\r\nFormat settings, ReFrames                : 3 frames\r\nCodec ID                                 : V_MPEG4/ISO/AVC\r\nDuration                                 : 39 min 51 s\r\nBit rate mode                            : Variable\r\nBit rate                                 : 2 897 kb/s\r\nMaximum bit rate                         : 3 000 kb/s\r\nWidth                                    : 1 280 pixels\r\nHeight                                   : 720 pixels\r\nDisplay aspect ratio                     : 16:9\r\nFrame rate mode                          : Constant\r\nFrame rate                               : 25.000 FPS\r\nStandard                                 : PAL\r\nColor space                              : YUV\r\nChroma subsampling                       : 4:2:0\r\nBit depth                                : 8 bits\r\nScan type                                : Progressive\r\nBits/(Pixel*Frame)                       : 0.126\r\nStream size                              : 826 MiB (88%)\r\nWriting library                          : x264 core 112\r\nDefault                                  : Yes\r\nForced                                   : No\r\nColor range                              : Limited\r\nColor primaries                          : BT.709\r\nTransfer characteristics                 : BT.709\r\nMatrix coefficients                      : BT.709\r\n\r\nAudio\r\nID                                       : 1\r\nFormat                                   : AC-3\r\nFormat/Info                              : Audio Coding 3\r\nMode extension                           : CM (complete main)\r\nFormat settings, Endianness              : Big\r\nCodec ID                                 : A_AC3\r\nDuration                                 : 39 min 51 s\r\nBit rate mode                            : Constant\r\nBit rate                                 : 384 kb/s\r\nChannel(s)                               : 6 channels\r\nChannel positions                        : Front: L C R, Side: L R, LFE\r\nSampling rate                            : 48.0 kHz\r\nFrame rate                               : 31.250 FPS (1536 spf)\r\nCompression mode                         : Lossy\r\nStream size                              : 109 MiB (12%)\r\nDefault                                  : Yes\r\nForced                                   : No","torrent":{"xt":"urn:btih:6749d26f948a35d27ff5b16e569fa42c6cf65e76","amp;dn":"20-20+-+16-9-2016+-+In-Laws+%26amp%3B+Outlaws","amp;tr":["udp%3A%2F%2Ftracker.leechers-paradise.org%3A6969","udp%3A%2F%2Fzer0day.ch%3A1337","udp%3A%2F%2Fopen.demonii.com%3A1337","udp%3A%2F%2Ftracker.coppersurfer.tk%3A6969","udp%3A%2F%2Fexodus.desync.com%3A6969"],"infoHash":"6749d26f948a35d27ff5b16e569fa42c6cf65e76","infoHashBuffer":{"type":"Buffer","data":[103,73,210,111,148,138,53,210,127,245,177,110,86,159,164,44,108,246,94,118]},"announce":[],"urlList":[]}}